<?xml version="1.0" encoding="UTF-8" standalone="no"?>
<!-- Created with Inkscape (http://www.inkscape.org/) -->

<svg
   version="1.1"
   id="svg1"
   width="61.599998"
   height="64"
   viewBox="0 0 61.599998 64"
   sodipodi:docname="heart.svg"
   inkscape:version="1.3.2 (091e20e, 2023-11-25, custom)"
   xmlns:inkscape="http://www.inkscape.org/namespaces/inkscape"
   xmlns:sodipodi="http://sodipodi.sourceforge.net/DTD/sodipodi-0.dtd"
   xmlns="http://www.w3.org/2000/svg"
   xmlns:svg="http://www.w3.org/2000/svg">
  <defs
     id="defs1" />
  <sodipodi:namedview
     id="namedview1"
     pagecolor="#505050"
     bordercolor="#eeeeee"
     borderopacity="1"
     inkscape:showpageshadow="0"
     inkscape:pageopacity="0"
     inkscape:pagecheckerboard="0"
     inkscape:deskcolor="#505050"
     inkscape:zoom="9.9675327"
     inkscape:cx="30.799999"
     inkscape:cy="31.753094"
     inkscape:window-width="3200"
     inkscape:window-height="1711"
     inkscape:window-x="2391"
     inkscape:window-y="-9"
     inkscape:window-maximized="1"
     inkscape:current-layer="layer1" />
  <g
     inkscape:groupmode="layer"
     id="layer1"
     inkscape:label="Image 1">
    <path
       style="fill:#000000"
       d="M 6.2232532,60.829383 C 0.410168,55.712501 -1.6587761,49.124245 1.2453631,44.978005 c 1.7586676,-2.51085 5.5166236,-2.390204 7.2349349,0.23227 l 1.3171829,2.010276 1.8630601,-2.010276 c 2.23565,-2.412306 5.166528,-2.590338 7.119383,-0.432458 1.110561,1.227156 1.341339,2.478726 1.038398,5.631495 -0.416988,4.339679 -2.825955,8.094934 -7.510092,11.707224 l -2.4639903,1.900167 z m 10.3639958,-3.80377 c 1.757061,-2.303625 2.186432,-3.718713 2.198167,-7.244541 0.01048,-3.147973 -0.344745,-4.61189 -1.261595,-5.199197 -1.899718,-1.216903 -5.082691,-0.100948 -6.323173,2.216913 L 10.107823,48.84075 8.5753505,46.420375 C 6.737284,43.517348 2.9680799,43.043719 1.628147,45.547407 -0.59992247,49.710593 1.5272328,56.043496 6.6170356,60.400178 l 3.2096608,2.747351 2.2884846,-1.629545 c 1.258666,-0.89625 3.271097,-2.917817 4.472068,-4.492371 z m 10.436004,3.80377 c -5.813086,-5.116882 -7.88203,-11.705138 -4.97789,-15.851378 1.758667,-2.51085 5.516623,-2.390204 7.234934,0.23227 l 1.317183,2.010276 1.863061,-2.010276 c 2.235649,-2.412306 5.166528,-2.590338 7.119383,-0.432458 1.11056,1.227156 1.341339,2.478726 1.038398,5.631495 -0.416988,4.339679 -2.825955,8.094934 -7.510093,11.707224 l -2.46399,1.900167 z m 10.363995,-3.80377 c 1.757061,-2.303625 2.186433,-3.718713 2.198168,-7.244541 0.01048,-3.147973 -0.344745,-4.61189 -1.261596,-5.199197 -1.899718,-1.216903 -5.08269,-0.100948 -6.323172,2.216913 L 30.907823,48.84075 29.37535,46.420375 c -1.838067,-2.903027 -5.607271,-3.376656 -6.947204,-0.872968 -2.228069,4.163186 -0.100914,10.496089 4.988889,14.852771 l 3.209661,2.747351 2.288484,-1.629545 c 1.258667,-0.89625 3.271097,-2.917817 4.472068,-4.492371 z m 10.436004,3.80377 c -5.813085,-5.116882 -7.882029,-11.705138 -4.97789,-15.851378 1.758668,-2.51085 5.516624,-2.390204 7.234935,0.23227 l 1.317183,2.010276 1.86306,-2.010276 c 2.23565,-2.412306 5.166528,-2.590338 7.119383,-0.432458 1.110561,1.227156 1.341339,2.478726 1.038398,5.631495 -0.416988,4.339679 -2.825955,8.094934 -7.510092,11.707224 l -2.46399,1.900167 z m 10.363996,-3.80377 c 1.757061,-2.303625 2.186432,-3.718713 2.198167,-7.244541 0.01048,-3.147973 -0.344745,-4.61189 -1.261595,-5.199197 -1.899718,-1.216903 -5.082691,-0.100948 -6.323173,2.216913 l -1.092825,2.041962 -1.532473,-2.420375 c -1.838066,-2.903027 -5.60727,-3.376656 -6.947203,-0.872968 -2.228069,4.163186 -0.100914,10.496089 4.988889,14.852771 l 3.20966,2.747351 2.288485,-1.629545 c 1.258666,-0.89625 3.271097,-2.917817 4.472068,-4.492371 z M 6.2232532,39.229383 C 0.410168,34.112501 -1.6587761,27.524245 1.2453631,23.378005 c 1.7586676,-2.51085 5.5166236,-2.390204 7.2349349,0.23227 l 1.3171829,2.010276 1.8630601,-2.010276 c 2.23565,-2.412306 5.166528,-2.590338 7.119383,-0.432458 1.110561,1.227156 1.341339,2.478726 1.038398,5.631495 -0.416988,4.339679 -2.825955,8.094934 -7.510092,11.707224 l -2.4639903,1.900167 z m 10.3639958,-3.80377 c 1.757061,-2.303625 2.186432,-3.718713 2.198167,-7.244541 0.01048,-3.147973 -0.344745,-4.61189 -1.261595,-5.199197 -1.899718,-1.216903 -5.082691,-0.100948 -6.323173,2.216913 L 10.107823,27.24075 8.5753505,24.820375 C 6.737284,21.917348 2.9680799,21.443719 1.628147,23.947407 -0.59992247,28.110593 1.5272328,34.443496 6.6170356,38.800178 l 3.2096608,2.747351 2.2884846,-1.629545 c 1.258666,-0.89625 3.271097,-2.917817 4.472068,-4.492371 z m 31.236003,3.80377 c -5.813085,-5.116882 -7.882029,-11.705138 -4.97789,-15.851378 1.758668,-2.51085 5.516624,-2.390204 7.234935,0.23227 l 1.317183,2.010276 1.86306,-2.010276 c 2.23565,-2.412306 5.166528,-2.590338 7.119383,-0.432458 1.110561,1.227156 1.341339,2.478726 1.038398,5.631495 -0.416988,4.339679 -2.825955,8.094934 -7.510092,11.707224 l -2.46399,1.900167 z m 10.363996,-3.80377 c 1.757061,-2.303625 2.186432,-3.718713 2.198167,-7.244541 0.01048,-3.147973 -0.344745,-4.61189 -1.261595,-5.199197 -1.899718,-1.216903 -5.082691,-0.100948 -6.323173,2.216913 l -1.092825,2.041962 -1.532473,-2.420375 c -1.838066,-2.903027 -5.60727,-3.376656 -6.947203,-0.872968 -2.228069,4.163186 -0.100914,10.496089 4.988889,14.852771 l 3.20966,2.747351 2.288485,-1.629545 c 1.258666,-0.89625 3.271097,-2.917817 4.472068,-4.492371 z M 6.2232532,17.629383 C 0.410168,12.512501 -1.6587761,5.9242447 1.2453631,1.778005 3.0040307,-0.73284472 6.7619867,-0.61219931 8.480298,2.0102753 L 9.7974809,4.0205506 11.660541,2.0102753 c 2.23565,-2.41230605 5.166528,-2.59033863 7.119383,-0.4324581 1.110561,1.2271557 1.341339,2.4787258 1.038398,5.6314953 C 19.401334,11.548991 16.992367,15.304246 12.30823,18.916536 L 9.8442397,20.816703 Z M 16.587249,13.825613 C 18.34431,11.521988 18.773681,10.1069 18.785416,6.5810722 18.795893,3.4330992 18.440671,1.9691821 17.523821,1.381875 15.624103,0.16497195 12.44113,1.2809267 11.200648,3.5987881 L 10.107823,5.6407501 8.5753505,3.2203751 C 6.737284,0.31734792 2.9680799,-0.15628084 1.628147,2.3474068 -0.59992247,6.5105928 1.5272328,12.843496 6.6170356,17.200178 l 3.2096608,2.747351 2.2884846,-1.629545 c 1.258666,-0.89625 3.271097,-2.917817 4.472068,-4.492371 z m 10.436004,3.80377 c -5.813086,-5.116882 -7.88203,-11.7051383 -4.97789,-15.851378 1.758667,-2.51084972 5.516623,-2.39020431 7.234934,0.2322703 l 1.317183,2.0102753 1.863061,-2.0102753 c 2.235649,-2.41230605 5.166528,-2.59033863 7.119383,-0.4324581 1.11056,1.2271557 1.341339,2.4787258 1.038398,5.6314953 -0.416988,4.3396785 -2.825955,8.0949335 -7.510093,11.7072235 l -2.46399,1.900167 z m 10.363995,-3.80377 C 39.144309,11.521988 39.573681,10.1069 39.585416,6.5810722 39.595893,3.4330992 39.240671,1.9691821 38.32382,1.381875 36.424102,0.16497195 33.24113,1.2809267 32.000648,3.5987881 L 30.907823,5.6407501 29.37535,3.2203751 C 27.537283,0.31734792 23.768079,-0.15628084 22.428146,2.3474068 20.200077,6.5105928 22.327232,12.843496 27.417035,17.200178 l 3.209661,2.747351 2.288484,-1.629545 c 1.258667,-0.89625 3.271097,-2.917817 4.472068,-4.492371 z m 10.436004,3.80377 C 42.010167,12.512501 39.941223,5.9242447 42.845362,1.778005 c 1.758668,-2.51084972 5.516624,-2.39020431 7.234935,0.2322703 l 1.317183,2.0102753 1.86306,-2.0102753 c 2.23565,-2.41230605 5.166528,-2.59033863 7.119383,-0.4324581 1.110561,1.2271557 1.341339,2.4787258 1.038398,5.6314953 -0.416988,4.3396785 -2.825955,8.0949335 -7.510092,11.7072235 l -2.46399,1.900167 z m 10.363996,-3.80377 C 59.944309,11.521988 60.37368,10.1069 60.385415,6.5810722 60.395892,3.4330992 60.04067,1.9691821 59.12382,1.381875 57.224102,0.16497195 54.041129,1.2809267 52.800647,3.5987881 l -1.092825,2.041962 -1.532473,-2.420375 C 48.337283,0.31734792 44.568079,-0.15628084 43.228146,2.3474068 41.000077,6.5105928 43.127232,12.843496 48.217035,17.200178 l 3.20966,2.747351 2.288485,-1.629545 c 1.258666,-0.89625 3.271097,-2.917817 4.472068,-4.492371 z"
       id="path1" />
    <path
       style="fill:#ff0000;stroke-width:1"
       d="M 8.2717497,61.736974 C 7.4192905,61.012213 6.4735178,60.195593 6.1700324,59.922262 4.680412,58.580653 3.1011232,56.507661 2.1966625,54.706772 0.62819201,51.583761 0.38689284,48.226371 1.5587021,45.830317 2.325181,44.26306 3.9584758,43.617451 5.68527,44.199166 c 1.3657684,0.460094 2.2814902,1.325209 3.5379057,3.342386 0.437698,0.702725 0.8238973,1.295038 0.8582213,1.316251 0.03432,0.02121 0.353219,-0.5089 0.708655,-1.178031 0.723335,-1.361721 1.359128,-2.129026 2.233187,-2.695117 1.821305,-1.179581 4.112597,-1.091038 4.992382,0.192923 0.455854,0.665276 0.613954,1.588591 0.669065,3.907399 0.07537,3.171236 -0.148579,4.560026 -0.988955,6.132853 -1.078975,2.019385 -3.925721,5.057374 -6.385553,6.814533 -0.787155,0.562298 -1.4440857,1.022359 -1.4598464,1.022359 -0.015761,0 -0.7261227,-0.592987 -1.5785819,-1.317748 z"
       id="path2" />
    <path
       style="fill:#ff0000;stroke-width:1"
       d="M 8.3771579,18.633953 C 5.3663918,16.067162 4.3717608,15.028339 3.162409,13.187513 1.2475835,10.272846 0.42835436,6.9059553 0.99196722,4.2673732 1.1818757,3.3783071 1.7008699,2.2403725 2.1494835,1.7294298 2.8036228,0.98440631 4.0167103,0.62660579 5.1246118,0.85191486 6.7517163,1.1828119 7.8349215,2.0991931 9.1836305,4.2858059 c 0.4669183,0.756998 0.8788925,1.3777635 0.9154985,1.3794788 0.03661,0.00172 0.320279,-0.4762622 0.630384,-1.0621725 0.934118,-1.7649152 1.338129,-2.2495527 2.413158,-2.8947363 1.626336,-0.9760536 3.5795,-1.00792694 4.550329,-0.074256 0.807255,0.7763578 1.070643,2.2403321 0.993784,5.523698 -0.05662,2.4189141 -0.188544,3.1358891 -0.824299,4.4799671 -0.513102,1.08477 -1.288084,2.1806 -2.540639,3.592477 -1.34414,1.515111 -2.483211,2.516001 -4.436545,3.898345 l -1.0534607,0.745519 z"
       id="path3" />
    <path
       style="fill:#ff0000;stroke-width:1"
       d="M 49.758938,18.450174 C 46.467305,15.648261 45.045579,13.994599 43.815773,11.537459 42.85207,9.6119888 42.438593,7.9638183 42.444078,6.0697067 c 0.0044,-1.5089044 0.19989,-2.4333488 0.738403,-3.4912534 0.933641,-1.83413117 2.876812,-2.30316707 4.961239,-1.1975266 0.899164,0.4769424 1.604787,1.249556 2.611271,2.8591786 0.491207,0.7855642 0.9201,1.4274195 0.953095,1.4263453 0.03299,-0.00107 0.352141,-0.5541198 0.709213,-1.2289902 1.045314,-1.9756568 2.219861,-2.9947779 3.900998,-3.3847849 1.227967,-0.28487586 2.715772,0.088172 3.229603,0.8097811 0.575177,0.8077621 0.862368,2.8550888 0.766091,5.4613217 -0.06638,1.7967847 -0.164516,2.457912 -0.531807,3.5825117 -0.708886,2.170518 -3.77129,5.699281 -6.881861,7.929866 -0.750241,0.537997 -1.403388,0.978176 -1.451437,0.978176 -0.04805,0 -0.808525,-0.613871 -1.689948,-1.364158 z"
       id="path4" />
    <path
       style="fill:#d40000;stroke-width:1"
       d="m 49.338877,61.29186 c -1.115344,-0.965467 -2.35643,-2.117473 -2.757969,-2.560015 -2.942069,-3.242491 -4.520995,-7.250615 -4.116592,-10.450023 0.349787,-2.767322 1.599029,-4.291777 3.513713,-4.287798 1.88441,0.0039 3.273445,1.016343 4.836953,3.525517 0.469023,0.752705 0.882915,1.350269 0.919759,1.327921 0.03684,-0.02235 0.323567,-0.52559 0.637161,-1.118315 0.313594,-0.592725 0.729845,-1.29536 0.925002,-1.561411 0.987382,-1.346062 3.087875,-2.243637 4.59747,-1.964573 1.814949,0.335512 2.287169,1.245733 2.415242,4.655468 0.169828,4.521387 -0.483745,6.332365 -3.49684,9.68935 -1.164991,1.297954 -2.462513,2.448756 -3.999423,3.547179 -0.675826,0.48301 -1.27778,0.894826 -1.337676,0.915147 -0.0599,0.02032 -1.021457,-0.75298 -2.1368,-1.718447 z"
       id="path5" />
    <path
       style="fill:#d40000;stroke-width:1"
       d="M 8.7155152,62.026383 C 6.4970818,60.158564 5.5747992,59.31175 4.9016305,58.524582 2.5121178,55.730412 1.2893632,53.211904 0.94152148,50.367946 0.6195025,47.735116 1.5211663,45.114757 2.9945746,44.401493 c 1.0184161,-0.493007 2.0620409,-0.455973 3.2757836,0.116244 0.9104952,0.429251 1.8499619,1.418596 2.9094461,3.063915 0.4690228,0.728366 0.8817167,1.324941 0.9170977,1.325722 0.03538,7.82e-4 0.37398,-0.550886 0.752443,-1.225926 0.823798,-1.469355 1.666523,-2.39415 2.618692,-2.873715 1.72646,-0.869541 3.291645,-0.805413 4.241349,0.173773 0.766046,0.789828 0.944934,1.888488 0.875743,5.378501 -0.05221,2.633282 -0.168073,3.257402 -0.860351,4.634276 -1.066156,2.120477 -3.890721,5.144206 -6.66797,7.138136 -0.629689,0.452088 -1.1660827,0.821977 -1.1919847,0.821977 -0.025902,0 -0.5430907,-0.417606 -1.1493081,-0.928013 z"
       id="path6" />
    <path
       style="fill:#d40000;stroke-width:1"
       d="M 8.1741758,18.380639 C 5.217381,15.845164 3.8874766,14.36727 2.7069134,12.304988 1.1110356,9.5172079 0.4913778,6.3387429 1.1001338,4.0631921 1.3212333,3.2367143 2.0101733,1.9176431 2.3990808,1.5761779 2.5879678,1.4103328 3.0058049,1.1753021 3.3276076,1.0538874 4.6757252,0.54524889 6.3613872,1.0332299 7.5992787,2.2904901 7.9309669,2.6273681 8.610626,3.5263866 9.1096322,4.2883091 9.6086384,5.0502315 10.065586,5.6579649 10.12507,5.6388276 10.18456,5.6196906 10.458957,5.1982894 10.734853,4.7023811 11.735436,2.9038853 12.141336,2.4072665 13.113924,1.7915864 14.332291,1.0203205 16.077428,0.81069603 17.0879,1.3142355 c 0.620605,0.3092606 1.022601,0.8401236 1.28841,1.7014331 0.160452,0.5199151 0.18395,0.9677213 0.18395,3.5055039 0,3.275414 -0.04147,3.5551825 -0.746077,5.0333355 -0.941107,1.97429 -2.974414,4.388001 -5.237804,6.217727 -0.648182,0.523991 -2.362312,1.796744 -2.6465029,1.965048 -0.056483,0.03345 -0.8465484,-0.577039 -1.7557003,-1.356644 z"
       id="path7" />
    <path
       style="fill:#ff0000;stroke-width:1"
       d="M 50.564168,19.048949 C 49.0765,17.827422 47.017315,15.910054 46.247744,15.029801 44.465298,12.990995 43.177424,10.505168 42.671176,8.1263842 42.600585,7.7946847 42.541956,6.8487925 42.54059,6.0195438 c -0.0021,-1.3006476 0.02937,-1.6070051 0.23217,-2.2573289 0.589054,-1.8888943 1.545619,-2.79041873 3.061821,-2.88564736 0.558577,-0.0350827 0.860332,0.003292 1.368675,0.17405446 1.364714,0.4584354 2.225596,1.2573443 3.557293,3.3012128 0.471801,0.7241129 0.898659,1.316569 0.948574,1.316569 0.04991,0 0.349209,-0.4627132 0.665097,-1.0282517 1.035367,-1.8536338 1.741206,-2.6052821 3.011277,-3.2067086 0.656487,-0.3108718 0.760269,-0.3298605 1.802847,-0.3298605 0.98999,0 1.158703,0.026986 1.605212,0.256762 1.093701,0.5628229 1.446321,1.806253 1.450058,5.1132966 0.0023,2.0548408 -0.113111,3.127259 -0.452125,4.2004304 -0.593455,1.878618 -2.688746,4.56927 -5.319506,6.831006 -0.993768,0.854369 -2.851674,2.211791 -3.019232,2.20591 -0.04729,-0.0017 -0.44715,-0.299577 -0.888583,-0.662039 z"
       id="path8" />
    <path
       style="fill:#ff0000;stroke-width:1"
       d="M 8.1263842,61.482194 C 5.4299551,59.18331 4.0732196,57.679086 2.8200002,55.598965 0.88038407,52.379545 0.40262788,48.648111 1.5962326,46.040935 c 1.0802342,-2.359542 3.8485663,-2.593292 5.9337862,-0.501032 0.3893282,0.390642 1.1085878,1.308451 1.5983551,2.039575 0.4897671,0.731123 0.9242301,1.329316 0.9654731,1.329316 0.04124,0 0.395252,-0.541217 0.786687,-1.202704 1.144772,-1.934552 2.059038,-2.760274 3.6159,-3.265712 0.675355,-0.219255 1.81903,-0.227862 2.322548,-0.01748 0.607668,0.2539 1.158312,0.829724 1.395047,1.458839 0.160499,0.426521 0.230687,0.908355 0.280187,1.923473 0.0841,1.724579 -0.01923,4.914507 -0.180348,5.568078 -0.196632,0.797608 -1.050392,2.430502 -1.777656,3.399929 -0.865777,1.154063 -2.78896,3.1405 -4.062267,4.195875 -1.091123,0.904372 -2.464668,1.885966 -2.6353224,1.883314 -0.058865,-9.15e-4 -0.829372,-0.617511 -1.7122384,-1.370213 z"
       id="path9" />
    <path
       style="fill:#ff0000;stroke-width:1"
       d="m 50.649261,62.317725 c -1.509328,-1.21989 -3.676497,-3.216792 -4.363925,-4.021069 -1.827016,-2.137569 -3.116462,-4.639536 -3.600759,-6.986705 -0.389799,-1.889175 -0.179988,-4.062088 0.526262,-5.450261 0.313669,-0.616534 1.036085,-1.32035 1.607601,-1.566209 0.441601,-0.189972 0.65237,-0.216657 1.439371,-0.182236 0.803283,0.03513 1.007642,0.08379 1.586984,0.377847 0.896341,0.454959 1.992912,1.615295 3.015367,3.190711 0.438693,0.675945 0.823337,1.228991 0.854766,1.228991 0.03143,0 0.394305,-0.598193 0.806391,-1.329316 1.118673,-1.984746 2.051052,-2.785797 3.760876,-3.231149 0.794091,-0.206835 1.303683,-0.195135 2.090876,0.048 1.532212,0.473252 1.943843,1.808986 1.847154,5.993983 -0.03941,1.705962 -0.08685,2.224383 -0.26375,2.882647 -0.258381,0.961454 -0.757941,2.044585 -1.362255,2.953602 -0.631776,0.950326 -2.172521,2.722862 -3.220917,3.705472 -0.831168,0.779014 -2.968636,2.450236 -3.644255,2.849334 l -0.292415,0.172734 z"
       id="path10" />
    <path
       style="fill:#ff0000;stroke-width:1"
       d="M 9.371379,19.315131 C 8.4174843,18.598388 6.0626363,16.473526 5.167012,15.521382 3.2474642,13.480699 2.0000424,11.304955 1.3005996,8.7776137 0.94579647,7.4955809 0.84308924,5.2468717 1.0945833,4.2670189 1.3061272,3.4428169 1.8738714,2.2579251 2.2775359,1.7981765 3.4567555,0.45511961 5.8585417,0.66086668 7.4627893,2.2423671 7.7789871,2.5540814 8.347557,3.2605862 8.726278,3.8123778 c 0.8870064,1.292357 1.351578,1.8708835 1.452354,1.8086008 0.04429,-0.027376 0.390726,-0.5809504 0.769845,-1.230165 1.17807,-2.0173604 2.199145,-2.8551112 3.906219,-3.2048962 0.648585,-0.1328971 0.915806,-0.1427673 1.441981,-0.053262 0.90536,0.1540076 1.371333,0.5061063 1.812117,1.3692736 l 0.35114,0.6876222 0.03322,2.8420115 c 0.02059,1.7613296 -0.0092,3.1156065 -0.07842,3.5615199 -0.444723,2.8663094 -3.652418,6.7408214 -8.196748,9.9006924 l -0.3162178,0.21988 z"
       id="path11" />
    <path
       style="fill:#ff5555;stroke-width:1"
       d="M 7.9224158,39.83909 C 6.8758362,38.9416 5.6303015,37.797227 5.1545609,37.29604 1.3382746,33.27563 -0.15483029,28.075087 1.4658404,24.448081 c 0.4129969,-0.924272 0.8081382,-1.369559 1.531209,-1.725526 1.4137593,-0.695991 3.309283,-0.248448 4.6792937,1.104806 0.3198957,0.315983 0.9427281,1.162463 1.4574271,1.980763 0.4943416,0.785934 0.9285138,1.429273 0.9648278,1.429641 0.03631,3.72e-4 0.367679,-0.550996 0.736368,-1.225254 0.841291,-1.538552 1.112732,-1.879864 1.978664,-2.487985 0.958054,-0.672815 1.8043,-0.950763 2.894833,-0.950803 0.759055,-2.8e-5 0.929796,0.03553 1.451381,0.302281 0.695594,0.35574 1.04739,0.849248 1.321828,1.854289 0.150223,0.550144 0.177869,1.075697 0.176796,3.360912 -0.0012,2.478629 -0.02057,2.785516 -0.228366,3.611726 -0.472426,1.878371 -1.694469,3.720697 -4.027272,6.071426 -1.30987,1.319936 -2.03816,1.925173 -3.771619,3.134357 l -0.8059233,0.562177 z"
       id="path12" />
    <path
       style="fill:#ff5555;stroke-width:1"
       d="m 49.601104,39.90643 c -2.081836,-1.774089 -3.043167,-2.719668 -3.952585,-3.88782 -3.002946,-3.857302 -4.000424,-8.197224 -2.637565,-11.475768 0.397283,-0.95572 1.096944,-1.702671 1.82829,-1.951866 0.682602,-0.232586 1.786046,-0.218149 2.515777,0.03291 1.319528,0.453985 2.201595,1.294596 3.44724,3.285229 0.457503,0.731124 0.861972,1.329292 0.89882,1.329262 0.03685,-3e-5 0.360449,-0.550927 0.719113,-1.224216 0.485498,-0.911382 0.818736,-1.39471 1.304235,-1.89166 1.361145,-1.39325 3.456658,-1.951924 4.925297,-1.313108 0.818737,0.356128 1.267173,1.059335 1.512859,2.37236 0.173031,0.924745 0.173643,4.849904 9.03e-4,5.866703 -0.278841,1.641439 -0.92955,2.96114 -2.309349,4.683575 -1.593573,1.989296 -3.13898,3.399596 -5.895392,5.37999 l -0.511598,0.367567 z"
       id="path13" />
    <path
       style="fill:#ff5555;stroke-width:1"
       d="m 28.943973,61.640306 c -2.646386,-2.254534 -3.736116,-3.395199 -4.899687,-5.128707 -0.681783,-1.015731 -1.450331,-2.564346 -1.819527,-3.666322 -1.005031,-2.999818 -0.707934,-6.280849 0.715534,-7.902089 0.982067,-1.118513 2.848889,-1.251569 4.498794,-0.320648 0.827258,0.466761 1.556773,1.287137 2.547858,2.865195 0.490866,0.781582 0.904562,1.421059 0.919324,1.421059 0.01476,0 0.334088,-0.575619 0.709612,-1.279153 1.101622,-2.063857 2.236168,-3.016522 4.03825,-3.390871 1.496109,-0.310789 2.758686,0.145148 3.286542,1.186823 0.419405,0.827656 0.553533,1.867952 0.552579,4.285806 -0.0014,3.629606 -0.363853,4.878919 -2.08095,7.17329 -0.723477,0.966705 -2.125855,2.4884 -3.172222,3.442123 -0.695904,0.63429 -3.477299,2.734672 -3.609637,2.725833 -0.0171,-0.0011 -0.776014,-0.636695 -1.68647,-1.412339 z"
       id="path14" />
    <path
       style="fill:#ff5555;stroke-width:1"
       d="M 28.781689,18.290559 C 27.794952,17.446286 26.693321,16.461813 26.33362,16.10284 22.386997,12.164206 20.671635,6.8594221 22.135908,3.1213461 22.639217,1.8364723 23.321646,1.1805347 24.46788,0.87990081 c 0.551163,-0.14455907 0.752795,-0.15295403 1.323934,-0.0551221 1.637479,0.28048819 2.827404,1.26901369 4.246967,3.52815069 0.719726,1.1453944 0.86158,1.3191071 0.963434,1.1798133 0.06569,-0.089839 0.385667,-0.6672668 0.711055,-1.2831725 0.689377,-1.3048744 1.38995,-2.0846414 2.360631,-2.6274764 1.639932,-0.91710247 3.50614,-0.88799764 4.463752,0.069615 0.582683,0.5826825 0.810009,1.3741519 0.934802,3.2546505 0.186138,2.8048928 -0.100027,5.2336317 -0.790514,6.7092477 -0.962358,2.056623 -3.834327,5.211501 -6.444355,7.079167 -0.751028,0.537415 -1.432178,1.002703 -1.513667,1.033974 -0.09466,0.03633 -0.795995,-0.497445 -1.94223,-1.478189 z"
       id="path15" />
  </g>
</svg>
